<?xml version="1.0" encoding="UTF-8" standalone="no"?>
<!DOCTYPE svg PUBLIC "-//W3C//DTD SVG 1.1//EN"
 "http://www.w3.org/Graphics/SVG/1.1/DTD/svg11.dtd">
<!-- Generated by graphviz version 2.36.0 (20140111.2315)
 -->
<!-- Title: G Pages: 1 -->
<svg width="130pt" height="168pt"
 viewBox="0.00 0.00 130.00 168.00" xmlns="http://www.w3.org/2000/svg" xmlns:xlink="http://www.w3.org/1999/xlink">
<g id="graph0" class="graph" transform="scale(1 1) rotate(0) translate(4 164)">
<title>G</title>
<polygon fill="white" stroke="none" points="-4,4 -4,-164 126,-164 126,4 -4,4"/>
<g id="clust1" class="cluster"><title>cluster_Global</title>
<path fill="none" stroke="gray" d="M20,-8C20,-8 102,-8 102,-8 108,-8 114,-14 114,-20 114,-20 114,-140 114,-140 114,-146 108,-152 102,-152 102,-152 20,-152 20,-152 14,-152 8,-146 8,-140 8,-140 8,-20 8,-20 8,-14 14,-8 20,-8"/>
<text text-anchor="middle" x="61" y="-139.2" font-family="Times,serif" font-size="11.00" fill="gray">Global</text>
</g>
<g id="clust2" class="cluster"><title>cluster_\Durendal</title>
<path fill="none" stroke="gray" d="M28,-16C28,-16 94,-16 94,-16 100,-16 106,-22 106,-28 106,-28 106,-112 106,-112 106,-118 100,-124 94,-124 94,-124 28,-124 28,-124 22,-124 16,-118 16,-112 16,-112 16,-28 16,-28 16,-22 22,-16 28,-16"/>
<text text-anchor="middle" x="61" y="-111.2" font-family="Times,serif" font-size="11.00" fill="gray">Durendal</text>
</g>
<g id="clust3" class="cluster"><title>cluster_\Durendal\webBot</title>
<path fill="none" stroke="gray" d="M36,-24C36,-24 86,-24 86,-24 92,-24 98,-30 98,-36 98,-36 98,-84 98,-84 98,-90 92,-96 86,-96 86,-96 36,-96 36,-96 30,-96 24,-90 24,-84 24,-84 24,-36 24,-36 24,-30 30,-24 36,-24"/>
<text text-anchor="middle" x="61" y="-83.2" font-family="Times,serif" font-size="11.00" fill="gray">webBot</text>
</g>
<!-- \\Durendal\\webBot\\webBot -->
<g id="node1" class="node"><title>\\Durendal\\webBot\\webBot</title>
<polygon fill="none" stroke="black" points="89.5,-68 32.5,-68 32.5,-32 89.5,-32 89.5,-68"/>
<text text-anchor="middle" x="61" y="-47.2" font-family="Courier,monospace" font-size="11.00">webBot</text>
</g>
</g>
</svg>
