<?xml version="1.0" encoding="UTF-8" standalone="no"?>
<!DOCTYPE svg PUBLIC "-//W3C//DTD SVG 1.1//EN"
 "http://www.w3.org/Graphics/SVG/1.1/DTD/svg11.dtd">
<!-- Generated by graphviz version 2.36.0 (20140111.2315)
 -->
<!-- Title: G Pages: 1 -->
<svg width="136pt" height="222pt"
 viewBox="0.00 0.00 136.00 222.00" xmlns="http://www.w3.org/2000/svg" xmlns:xlink="http://www.w3.org/1999/xlink">
<g id="graph0" class="graph" transform="scale(1 1) rotate(0) translate(4 218)">
<title>G</title>
<polygon fill="white" stroke="none" points="-4,4 -4,-218 132,-218 132,4 -4,4"/>
<g id="clust1" class="cluster"><title>cluster_Global</title>
<path fill="none" stroke="gray" d="M20,-8C20,-8 108,-8 108,-8 114,-8 120,-14 120,-20 120,-20 120,-194 120,-194 120,-200 114,-206 108,-206 108,-206 20,-206 20,-206 14,-206 8,-200 8,-194 8,-194 8,-20 8,-20 8,-14 14,-8 20,-8"/>
<text text-anchor="middle" x="64" y="-193.2" font-family="Times,serif" font-size="11.00" fill="gray">Global</text>
</g>
<g id="clust2" class="cluster"><title>cluster_\Durendal</title>
<path fill="none" stroke="gray" d="M28,-16C28,-16 100,-16 100,-16 106,-16 112,-22 112,-28 112,-28 112,-166 112,-166 112,-172 106,-178 100,-178 100,-178 28,-178 28,-178 22,-178 16,-172 16,-166 16,-166 16,-28 16,-28 16,-22 22,-16 28,-16"/>
<text text-anchor="middle" x="64" y="-165.2" font-family="Times,serif" font-size="11.00" fill="gray">Durendal</text>
</g>
<g id="clust3" class="cluster"><title>cluster_\Durendal\webBot</title>
<path fill="none" stroke="gray" d="M36,-24C36,-24 92,-24 92,-24 98,-24 104,-30 104,-36 104,-36 104,-138 104,-138 104,-144 98,-150 92,-150 92,-150 36,-150 36,-150 30,-150 24,-144 24,-138 24,-138 24,-36 24,-36 24,-30 30,-24 36,-24"/>
<text text-anchor="middle" x="64" y="-137.2" font-family="Times,serif" font-size="11.00" fill="gray">webBot</text>
</g>
<!-- \\Durendal\\webBot\\HTTPBot -->
<g id="node1" class="node"><title>\\Durendal\\webBot\\HTTPBot</title>
<polygon fill="none" stroke="black" points="96,-122 32,-122 32,-86 96,-86 96,-122"/>
<text text-anchor="middle" x="64" y="-101.2" font-family="Courier,monospace" font-size="11.00">HTTPBot</text>
</g>
<!-- \\Durendal\\webBot\\FTPBot -->
<g id="node2" class="node"><title>\\Durendal\\webBot\\FTPBot</title>
<polygon fill="none" stroke="black" points="92.5,-68 35.5,-68 35.5,-32 92.5,-32 92.5,-68"/>
<text text-anchor="middle" x="64" y="-47.2" font-family="Courier,monospace" font-size="11.00">FTPBot</text>
</g>
</g>
</svg>
