<?xml version="1.0" encoding="UTF-8" standalone="no"?>
<!DOCTYPE svg PUBLIC "-//W3C//DTD SVG 1.1//EN"
 "http://www.w3.org/Graphics/SVG/1.1/DTD/svg11.dtd">
<!-- Generated by graphviz version 2.36.0 (20140111.2315)
 -->
<!-- Title: G Pages: 1 -->
<svg width="136pt" height="212pt"
 viewBox="0.00 0.00 136.00 212.00" xmlns="http://www.w3.org/2000/svg" xmlns:xlink="http://www.w3.org/1999/xlink">
<g id="graph0" class="graph" transform="scale(1 1) rotate(0) translate(4 208)">
<title>G</title>
<polygon fill="white" stroke="none" points="-4,4 -4,-208 132,-208 132,4 -4,4"/>
<g id="clust1" class="cluster"><title>cluster_Global</title>
<path fill="none" stroke="gray" d="M20,-8C20,-8 108,-8 108,-8 114,-8 120,-14 120,-20 120,-20 120,-184 120,-184 120,-190 114,-196 108,-196 108,-196 20,-196 20,-196 14,-196 8,-190 8,-184 8,-184 8,-20 8,-20 8,-14 14,-8 20,-8"/>
<text text-anchor="middle" x="64" y="-183.2" font-family="Times,serif" font-size="11.00" fill="gray">Global</text>
</g>
<g id="clust2" class="cluster"><title>cluster_\Durendal</title>
<path fill="none" stroke="gray" d="M28,-60C28,-60 100,-60 100,-60 106,-60 112,-66 112,-72 112,-72 112,-156 112,-156 112,-162 106,-168 100,-168 100,-168 28,-168 28,-168 22,-168 16,-162 16,-156 16,-156 16,-72 16,-72 16,-66 22,-60 28,-60"/>
<text text-anchor="middle" x="64" y="-155.2" font-family="Times,serif" font-size="11.00" fill="gray">Durendal</text>
</g>
<g id="clust3" class="cluster"><title>cluster_\Durendal\webBot</title>
<path fill="none" stroke="gray" d="M36,-68C36,-68 92,-68 92,-68 98,-68 104,-74 104,-80 104,-80 104,-128 104,-128 104,-134 98,-140 92,-140 92,-140 36,-140 36,-140 30,-140 24,-134 24,-128 24,-128 24,-80 24,-80 24,-74 30,-68 36,-68"/>
<text text-anchor="middle" x="64" y="-127.2" font-family="Times,serif" font-size="11.00" fill="gray">webBot</text>
</g>
<!-- \\Durendal\\webBot\\HTTPBot -->
<g id="node1" class="node"><title>\\Durendal\\webBot\\HTTPBot</title>
<polygon fill="none" stroke="black" points="96,-112 32,-112 32,-76 96,-76 96,-112"/>
<text text-anchor="middle" x="64" y="-91.2" font-family="Courier,monospace" font-size="11.00">HTTPBot</text>
</g>
<!-- \\FTPBot -->
<g id="node2" class="node"><title>\\FTPBot</title>
<polygon fill="none" stroke="black" points="92.5,-52 35.5,-52 35.5,-16 92.5,-16 92.5,-52"/>
<text text-anchor="middle" x="64" y="-31.2" font-family="Courier,monospace" font-size="11.00">FTPBot</text>
</g>
</g>
</svg>
